HIERARCHY
ROOT Hips
{
	OFFSET -3.958830 18.904000 13.208200
	CHANNELS 6 Xposition Yposition Zposition Zrotation Yrotation Xrotation 
	JOINT LHipJoint
	{
		OFFSET 0.000000 0.000000 0.000000
		CHANNELS 3 Zrotation Yrotation Xrotation
		JOINT LeftUpLeg
		{
			OFFSET 1.800000 -1.400000 0.085000
			CHANNELS 3 Zrotation Yrotation Xrotation
			JOINT LeftLeg
			{
				OFFSET 2.215000 -6.000000 0.000000
				CHANNELS 3 Zrotation Yrotation Xrotation
				JOINT LeftFoot
				{
					OFFSET 2.500000 -6.900000 0.000000
					CHANNELS 3 Zrotation Yrotation Xrotation
					JOINT LeftToeBase
					{
						OFFSET 0.200000 -0.500000 1.950000
						CHANNELS 3 Zrotation Yrotation Xrotation
						End Site
						{
							OFFSET 0.000000 0.000000 0.000000
						}
					}
				}
			}
		}
	}
	JOINT RHipJoint
	{
		OFFSET 0.000000 0.000000 0.000000
		CHANNELS 3 Zrotation Yrotation Xrotation
		JOINT RightUpLeg
		{
			OFFSET -1.800000 -1.400000 0.085000
			CHANNELS 3 Zrotation Yrotation Xrotation
			JOINT RightLeg
			{
				OFFSET -2.215000 -6.000000 0.000000
				CHANNELS 3 Zrotation Yrotation Xrotation
				JOINT RightFoot
				{
					OFFSET -2.500000 -6.900000 0.000000
					CHANNELS 3 Zrotation Yrotation Xrotation
					JOINT RightToeBase
					{
						OFFSET -0.200000 -0.500000 1.950000
						CHANNELS 3 Zrotation Yrotation Xrotation
						End Site
						{
							OFFSET 0.000000 0.000000 0.000000
						}
					}
				}
			}
		}
	}
	JOINT LowerBack
	{
		OFFSET 0.000000 0.000000 0.000000
		CHANNELS 3 Zrotation Yrotation Xrotation
		JOINT Spine
		{
			OFFSET -0.087000 1.940000 -0.288900
			CHANNELS 3 Zrotation Yrotation Xrotation
			JOINT Spine1
			{
				OFFSET 0.000000 1.950000 0.060000
				CHANNELS 3 Zrotation Yrotation Xrotation
				JOINT Neck
				{
					OFFSET 0.000000 0.000000 0.000000
					CHANNELS 3 Zrotation Yrotation Xrotation
					JOINT Neck1
					{
						OFFSET 0.000000 1.600000 0.340000
						CHANNELS 3 Zrotation Yrotation Xrotation
						JOINT Head
						{
							OFFSET 0.000000 1.667000 -0.240000
							CHANNELS 3 Zrotation Yrotation Xrotation
							End Site
							{
								OFFSET 0.000000 0.000000 0.000000
							}
						}
					}
				}
				JOINT LeftShoulder
				{
					OFFSET 0.000000 0.000000 0.000000
					CHANNELS 3 Zrotation Yrotation Xrotation
					JOINT LeftArm
					{
						OFFSET 2.700000 1.550000 -0.730000
						CHANNELS 3 Zrotation Yrotation Xrotation
						JOINT LeftForeArm
						{
							OFFSET 5.450000 0.000000 0.000000
							CHANNELS 3 Zrotation Yrotation Xrotation
							JOINT LeftHand
							{
								OFFSET 3.450000 0.000000 0.000000
								CHANNELS 3 Zrotation Yrotation Xrotation
								JOINT LeftHandIndex1
								{
									OFFSET 0.750000 0.000000 0.000000
									CHANNELS 3 Zrotation Yrotation Xrotation
									End Site
									{
										OFFSET 0.000000 0.000000 0.000000
									}
								}
							}
						}
					}
				}
				JOINT RightShoulder
				{
					OFFSET 0.000000 0.000000 0.000000
					CHANNELS 3 Zrotation Yrotation Xrotation
					JOINT RightArm
					{
						OFFSET -2.700000 1.550000 -0.730000
						CHANNELS 3 Zrotation Yrotation Xrotation
						JOINT RightForeArm
						{
							OFFSET -5.450000 0.000000 0.000000
							CHANNELS 3 Zrotation Yrotation Xrotation
							JOINT RightHand
							{
								OFFSET -3.450000 0.000000 0.000000
								CHANNELS 3 Zrotation Yrotation Xrotation
								JOINT RightHandIndex1
								{
									OFFSET -0.750000 0.000000 0.000000
									CHANNELS 3 Zrotation Yrotation Xrotation
									End Site
									{
										OFFSET 0.000000 0.000000 0.000000
									}
								}
							}
						}
					}
				}
			}
		}
	}
}
MOTION
Frames: 7
Frame Time: 0.016667
0.004250 16.845360 -1.448730 -4.677605 -17.224099 4.430095 -14.594826 12.649575 2.311128 12.437727 -0.883287 -17.130338 -4.654965 7.931984 24.627204 -0.197221 5.227012 2.938946 0.268470 0.030830 -0.094250 18.715159 -12.046592 3.064162 -5.649819 1.463158 -14.461178 11.407571 -6.022434 13.397165 0.029305 -4.197299 3.240795 0.161140 0.645040 0.185210 -4.829397 2.049513 -6.853927 13.180999 2.396940 5.170650 -1.679419 2.273995 7.822727 2.155417 2.096231 -7.836367 4.065613 -7.228522 28.464137 -2.282150 -9.184370 4.844820 -4.629271 0.509237 2.713218 -31.657618 0.226327 -5.169317 25.854752 -58.343196 -11.666389 -3.786225 3.422292 -0.123970 0.505130 -0.498280 0.377060 0.580111 0.948262 3.213349 27.372702 17.975869 -3.211924 -57.933587 50.080520 -26.618125 1.584652 -1.558671 -0.143930 0.172460 -0.015170 0.042780 
0.007430 16.844500 -1.448570 -4.686842 -17.244292 4.425798 -14.596489 12.648782 2.312462 12.431600 -0.887982 -17.142897 -4.659162 7.943124 24.675994 -0.197749 5.237939 2.936324 0.268540 0.031210 -0.096480 18.713444 -12.047235 3.063119 -5.668296 1.464137 -14.474145 11.406830 -6.026908 13.419371 0.031327 -4.202521 3.239819 0.163190 0.649920 0.186160 -4.824260 2.052254 -6.854178 13.159936 2.365296 5.168870 -1.791492 2.274223 7.851260 2.260290 2.090962 -7.849536 4.075120 -7.204736 28.392949 -2.305860 -9.187740 4.877460 -4.507962 0.517894 2.705954 -31.585461 0.236322 -5.143567 25.984901 -58.335254 -11.711772 -3.790245 3.422937 -0.127240 0.509100 -0.501910 0.378550 0.255098 0.963678 3.220047 26.791242 18.054841 -3.120232 -57.398856 50.127518 -26.289873 1.583896 -1.569363 -0.144900 0.173920 -0.014010 0.044020 
0.010360 16.843710 -1.448420 -4.700346 -17.261461 4.418991 -14.598089 12.648824 2.313877 12.429941 -0.892555 -17.156439 -4.659199 7.953902 24.730587 -0.197438 5.248410 2.933942 0.269560 0.032770 -0.097950 18.711713 -12.047645 3.062140 -5.681055 1.464623 -14.483330 11.404029 -6.030868 13.444300 0.032482 -4.206989 3.238953 0.165530 0.653790 0.186840 -4.819129 2.053190 -6.855090 13.149664 2.329194 5.172617 -1.912087 2.272753 7.874614 2.368652 2.082753 -7.861147 4.077604 -7.184115 28.330627 -2.326300 -9.192840 4.899190 -4.398136 0.526664 2.699422 -31.509886 0.255300 -5.122047 26.143996 -58.341453 -11.774593 -3.792909 3.423363 -0.130260 0.512160 -0.504730 0.380470 -0.066777 0.979827 3.223899 26.197557 18.105598 -3.041096 -56.735602 50.263060 -25.923101 1.582326 -1.579213 -0.145320 0.175310 -0.013830 0.045280 
0.013160 16.842870 -1.448210 -4.711330 -17.276599 4.412943 -14.599515 12.649165 2.315248 12.424948 -0.897570 -17.169724 -4.657005 7.962118 24.780040 -0.196939 5.257561 2.932217 0.270060 0.034070 -0.100320 18.710102 -12.048042 3.061130 -5.695510 1.465347 -14.494641 11.401535 -6.035282 13.471528 0.033906 -4.211661 3.238133 0.167730 0.658160 0.187310 -4.814442 2.053492 -6.855951 13.146367 2.291647 5.174680 -2.045705 2.271655 7.890901 2.477533 2.069864 -7.868193 4.071042 -7.164097 28.268911 -2.337920 -9.207130 4.930340 -4.294707 0.542498 2.690015 -31.431099 0.270630 -5.097835 26.325900 -58.351106 -11.847270 -3.795530 3.423532 -0.133580 0.515290 -0.507750 0.382680 -0.385094 0.990779 3.224700 25.602728 18.131299 -2.968175 -55.958763 50.480113 -25.523557 1.580017 -1.588316 -0.145880 0.176840 -0.013580 0.047050 
0.015780 16.842060 -1.448030 -4.723537 -17.285992 4.405299 -14.600860 12.650214 2.316792 12.423358 -0.902527 -17.183900 -4.653507 7.969668 24.828680 -0.195220 5.265900 2.930886 0.270570 0.035560 -0.102800 18.708518 -12.048072 3.060138 -5.704820 1.464876 -14.501266 11.395979 -6.038434 13.496414 0.035271 -4.215685 3.237829 0.169640 0.662260 0.187750 -4.809900 2.051746 -6.857412 13.151669 2.249824 5.179016 -2.183185 2.267782 7.903485 2.583851 2.049877 -7.875524 4.049992 -7.143283 28.218244 -2.340000 -9.229420 4.970090 -4.191282 0.558763 2.684122 -31.364684 0.289235 -5.077847 26.529543 -58.362032 -11.930498 -3.797413 3.423550 -0.137240 0.518120 -0.510450 0.385200 -0.699795 1.005301 3.223097 24.999683 18.132083 -2.904870 -55.069625 50.773696 -25.090893 1.577586 -1.597023 -0.145920 0.178020 -0.013920 0.049290 
0.018170 16.841230 -1.447850 -4.732656 -17.291346 4.397382 -14.602217 12.651784 2.318353 12.419284 -0.907529 -17.197525 -4.648174 7.975331 24.873347 -0.193580 5.273174 2.929912 0.270350 0.036620 -0.106060 18.706888 -12.047886 3.059115 -5.712955 1.463554 -14.506228 11.386230 -6.039804 13.516789 0.036864 -4.218923 3.237610 0.171370 0.666470 0.187840 -4.805259 2.048564 -6.859092 13.159947 2.206949 5.183723 -2.327084 2.263874 7.913861 2.689204 2.026739 -7.883380 4.021946 -7.124035 28.171192 -2.335690 -9.257480 5.011350 -4.084308 0.575082 2.679785 -31.297390 0.310755 -5.058982 26.716507 -58.381606 -12.008568 -3.799049 3.423482 -0.140850 0.520750 -0.513160 0.387530 -1.017344 1.020947 3.221226 24.398939 18.108504 -2.849378 -54.077580 51.138310 -24.629862 1.574730 -1.605260 -0.146240 0.179380 -0.013900 0.051740 
0.020450 16.840420 -1.447710 -4.744253 -17.293409 4.392741 -14.603445 12.653559 2.320273 12.417736 -0.913334 -17.216419 -4.642400 7.981012 24.918699 -0.192144 5.280857 2.928866 0.269760 0.036820 -0.109550 18.705404 -12.047301 3.058087 -5.715128 1.463837 -14.516251 11.373454 -6.040908 13.541163 0.038848 -4.221583 3.237882 0.172630 0.670950 0.187770 -4.801064 2.044245 -6.861201 13.179835 2.161064 5.187697 -2.478817 2.258821 7.922292 2.793973 1.998562 -7.892531 3.983965 -7.105467 28.125459 -2.330870 -9.290600 5.063010 -3.969058 0.592767 2.678193 -31.236338 0.339179 -5.041686 26.873511 -58.414860 -12.077446 -3.800567 3.423957 -0.144320 0.523410 -0.516340 0.389870 -1.343895 1.037425 3.218878 23.795951 18.059902 -2.800520 -52.966388 51.578585 -24.133128 1.571120 -1.613773 -0.146850 0.180790 -0.013560 0.054040 
